<svg width="29" height="27" viewBox="0 0 29 27" fill="none" xmlns="http://www.w3.org/2000/svg">
<path fill-rule="evenodd" clip-rule="evenodd" d="M13.7403 0C17.1986 0 20.368 1.25475 22.7824 3.33379L22.0739 4.13976C19.846 2.22558 16.9376 1.06242 13.7403 1.06242C6.74895 1.06242 1.09065 6.63094 1.09065 13.4908C1.09065 20.3507 6.75828 25.9193 13.7403 25.9193C20.7316 25.9193 26.3899 20.3507 26.3899 13.4908C26.3899 12.2727 26.2128 11.1004 25.8772 9.9922L26.9119 9.65333C27.2755 10.8714 27.4712 12.1537 27.4712 13.4908C27.4712 20.9461 21.3189 26.9908 13.731 26.9908C6.14304 26.9908 0 20.9552 0 13.5C0 6.04478 6.15236 0 13.7403 0Z" fill="white"/>
<path d="M28.8789 5.52276C28.9162 5.55939 28.9442 5.60519 28.9721 5.65098C28.9908 5.69677 29.0001 5.75173 29.0001 5.79752C29.0001 5.85247 28.9908 5.89827 28.9721 5.94406C28.9535 5.98985 28.9255 6.03565 28.8882 6.07228C28.8509 6.10892 28.8043 6.13639 28.7577 6.15471C28.7111 6.17303 28.6552 6.18219 28.6086 6.18219H26.0731V8.66421C26.0731 8.71916 26.0637 8.77412 26.0358 8.81991C26.0171 8.87486 25.9798 8.92065 25.9425 8.95729C25.9053 8.99393 25.8587 9.03056 25.8027 9.04888C25.7561 9.06719 25.7002 9.08551 25.6443 9.08551C25.5883 9.08551 25.5324 9.07635 25.4858 9.04888C25.4299 9.03056 25.3832 8.99393 25.346 8.95729C25.3087 8.92065 25.2714 8.87486 25.2527 8.81991C25.2341 8.77412 25.2155 8.71916 25.2155 8.66421V6.19135H22.6799C22.624 6.19135 22.5774 6.18219 22.5308 6.16387C22.4842 6.14555 22.4376 6.11808 22.4003 6.08144C22.363 6.04481 22.335 5.99901 22.3164 5.95322C22.2977 5.90743 22.2884 5.85247 22.2884 5.80668C22.2884 5.75173 22.2977 5.70593 22.3164 5.66014C22.335 5.61435 22.363 5.56855 22.4003 5.53192C22.4376 5.49528 22.4842 5.46781 22.5308 5.44949C22.5774 5.43117 22.6333 5.42201 22.6799 5.42201H25.2155V2.91251C25.2155 2.85756 25.2248 2.80261 25.2527 2.75681C25.2714 2.70186 25.3087 2.65607 25.346 2.61943C25.3832 2.5828 25.4299 2.54616 25.4858 2.52785C25.5324 2.50953 25.5883 2.49121 25.6443 2.49121C25.7002 2.49121 25.7561 2.50037 25.8027 2.52785C25.8587 2.54616 25.9053 2.5828 25.9425 2.61943C25.9798 2.65607 26.0171 2.70186 26.0358 2.75681C26.0544 2.80261 26.0731 2.85756 26.0731 2.91251V5.40369H28.6086C28.6645 5.40369 28.7111 5.41285 28.7577 5.43117C28.8043 5.45865 28.8416 5.48612 28.8789 5.52276Z" fill="white"/>
<path d="M17.7114 14.0952C17.4877 13.9029 17.2174 13.7655 16.9004 13.6739C16.5648 13.5732 16.192 13.5274 15.7725 13.5274C15.353 13.5274 14.9801 13.5732 14.6446 13.6739C14.3276 13.7655 14.0573 13.912 13.8336 14.0952C13.6285 14.2692 13.47 14.4982 13.3582 14.773C13.2556 15.0386 13.1997 15.35 13.1997 15.7163C13.1997 16.0644 13.2556 16.3666 13.3582 16.6139C13.47 16.8795 13.6285 17.0901 13.8336 17.2641C14.0573 17.4473 14.3369 17.5847 14.6446 17.6763C14.9801 17.777 15.3623 17.8228 15.7632 17.8228C16.1733 17.8228 16.5555 17.777 16.8911 17.6854C17.208 17.5939 17.4784 17.4565 17.7021 17.2733C17.9072 17.0993 18.0656 16.8886 18.1775 16.623C18.28 16.3666 18.336 16.0735 18.336 15.7163C18.336 15.35 18.28 15.0386 18.1682 14.773C18.075 14.4982 17.9165 14.2692 17.7114 14.0952ZM17.4131 9.60743C17.236 9.46089 17.0123 9.35099 16.7419 9.27772C16.4623 9.20445 16.136 9.16781 15.7725 9.16781C15.4089 9.16781 15.0827 9.20445 14.803 9.27772C14.5327 9.35099 14.309 9.46089 14.1319 9.60743C13.9641 9.74481 13.8336 9.91883 13.7403 10.1295C13.6564 10.3401 13.6098 10.5874 13.6098 10.8805C13.6098 11.1736 13.6564 11.43 13.7497 11.6407C13.8429 11.8605 13.9734 12.0437 14.1505 12.1902C14.3369 12.3459 14.5607 12.4558 14.831 12.5382C15.1106 12.6207 15.4276 12.6573 15.7725 12.6573C16.1267 12.6573 16.4437 12.6207 16.714 12.5382C16.9843 12.465 17.208 12.3459 17.3945 12.1902C17.5716 12.0437 17.7021 11.8605 17.7953 11.6407C17.8885 11.4209 17.9351 11.1736 17.9351 10.8805C17.9351 10.5874 17.8885 10.3401 17.8046 10.1295C17.7114 9.91883 17.5809 9.74481 17.4131 9.60743ZM18.3546 17.9144C18.047 18.1709 17.6648 18.3724 17.236 18.5006C16.7979 18.6288 16.3038 18.6929 15.7725 18.6929C15.2411 18.6929 14.7471 18.6288 14.309 18.5006C13.8802 18.3724 13.498 18.18 13.1904 17.9144C12.8827 17.658 12.6404 17.3374 12.4819 16.9619C12.3234 16.5956 12.2489 16.1834 12.2489 15.7072C12.2489 15.3316 12.3048 14.9836 12.398 14.6722C12.5005 14.3517 12.659 14.0677 12.8548 13.8205C13.0132 13.619 13.1997 13.4449 13.4141 13.3076C13.5632 13.2068 13.7217 13.1152 13.8895 13.042C13.787 12.987 13.6937 12.9321 13.6005 12.8588C13.442 12.7397 13.3115 12.6115 13.1904 12.4558C13.0319 12.2452 12.9107 12.007 12.8268 11.7414C12.7429 11.485 12.7056 11.1919 12.7056 10.8805C12.7056 10.4684 12.7802 10.102 12.9107 9.79061C13.0505 9.46089 13.2556 9.18613 13.5259 8.96632C13.7963 8.74651 14.1225 8.57249 14.4954 8.46259C14.8776 8.35268 15.3064 8.29773 15.7725 8.29773C16.2386 8.29773 16.6674 8.35268 17.0496 8.46259C17.4224 8.57249 17.7487 8.73735 18.019 8.95716C18.2894 9.17697 18.4944 9.45173 18.6343 9.78145C18.7648 10.0928 18.8393 10.4592 18.8393 10.8713C18.8393 11.1827 18.7927 11.4758 18.7182 11.7323C18.6343 12.007 18.5131 12.2452 18.3546 12.4466C18.2334 12.6023 18.0936 12.7397 17.9445 12.8496C17.8512 12.9137 17.758 12.9779 17.6555 13.0328C17.8233 13.1061 17.9817 13.1977 18.1309 13.2984C18.3453 13.4449 18.5317 13.619 18.6902 13.8113C18.886 14.0586 19.0444 14.3425 19.147 14.6631C19.2495 14.9745 19.2961 15.3133 19.2961 15.698C19.2961 16.1743 19.2122 16.5864 19.0631 16.9527C18.9046 17.3466 18.6622 17.658 18.3546 17.9144ZM9.75995 18.1617V9.68986L7.99814 10.8988C7.9795 10.908 7.96085 10.9263 7.94221 10.9354C7.92357 10.9446 7.90492 10.9538 7.87696 10.9629C7.84899 10.9721 7.83035 10.9812 7.80238 10.9812C7.77442 10.9812 7.75577 10.9904 7.72781 10.9904C7.67188 10.9904 7.61595 10.9812 7.56002 10.9538C7.50409 10.9354 7.45748 10.8988 7.41087 10.8622C7.37358 10.8255 7.3363 10.7706 7.31765 10.7248C7.29901 10.6698 7.28036 10.6149 7.28036 10.5599C7.28036 10.5233 7.28036 10.4867 7.28969 10.4592C7.29901 10.4226 7.30833 10.3951 7.32697 10.3584L7.35494 10.2943H7.36426C7.37358 10.2852 7.37358 10.276 7.3829 10.2669C7.40155 10.2394 7.42951 10.2211 7.45748 10.2027C8.09136 9.67154 9.20997 9.00295 9.92774 8.50838C9.95571 8.49006 9.97435 8.4809 9.993 8.46259C10.0116 8.45343 10.021 8.44427 10.0396 8.44427L10.0582 8.43511C10.0862 8.42595 10.1142 8.41679 10.1421 8.41679C10.1701 8.41679 10.1981 8.40763 10.226 8.40763C10.2913 8.40763 10.3472 8.41679 10.4032 8.44427C10.4591 8.46259 10.515 8.49922 10.5523 8.54502C10.6362 8.62744 10.6828 8.73735 10.6828 8.86557V18.18C10.6828 18.2441 10.6735 18.2991 10.6455 18.354C10.6176 18.409 10.5803 18.4639 10.5337 18.5006C10.487 18.5372 10.4404 18.5738 10.3845 18.5922C10.3286 18.6105 10.2726 18.6288 10.2074 18.6288C10.1421 18.6288 10.0862 18.6196 10.0303 18.5922C9.97435 18.5738 9.91842 18.5372 9.88114 18.4914C9.83453 18.4456 9.80656 18.3998 9.7786 18.3449C9.76927 18.2808 9.75995 18.2167 9.75995 18.1617Z" fill="white"/>
</svg>
