<svg width="49" height="24" viewBox="0 0 49 24" fill="none" xmlns="http://www.w3.org/2000/svg">
<path d="M0 14.6838C0 16.1028 1.07169 17.2134 2.44107 17.2134H3.69137V0H0V14.6838Z" fill="black"/>
<path d="M10.3598 5.67603C7.26379 5.67603 4.76318 8.26729 4.76318 11.4755C4.76318 14.6837 7.26379 17.275 10.3598 17.275C13.4558 17.275 15.9564 14.622 15.9564 11.4755C15.9564 8.26729 13.4558 5.67603 10.3598 5.67603ZM10.3598 14.0051C9.04994 14.0051 7.97825 12.8945 7.97825 11.5372C7.97825 10.1799 9.04994 9.06934 10.3598 9.06934C11.6696 9.06934 12.7413 10.1799 12.7413 11.5372C12.7413 12.8328 11.6696 14.0051 10.3598 14.0051Z" fill="black"/>
<path d="M24.5892 6.53978C24.5892 6.53978 23.6961 5.67603 22.2077 5.67603C19.1117 5.67603 16.6111 8.26729 16.6111 11.4755C16.6111 14.6837 19.1117 17.275 22.2077 17.275C23.7557 17.275 24.5892 16.5346 24.5892 16.5346V17.2133C24.5892 18.5706 23.5175 19.6812 22.2077 19.6812C21.7909 19.6812 21.4337 19.5578 21.0765 19.3727L20.362 20.113L18.7545 21.7789C19.7071 22.5192 20.8978 23.0128 22.1481 23.0128C25.2441 23.0128 27.7447 20.4215 27.7447 17.275V5.86112H24.5297V6.53978H24.5892ZM22.2077 14.0051C20.8978 14.0051 19.8262 12.8945 19.8262 11.5372C19.8262 10.1799 20.8978 9.06934 22.2077 9.06934C23.5175 9.06934 24.5892 10.1799 24.5892 11.5372C24.5892 12.8328 23.5175 14.0051 22.2077 14.0051Z" fill="black"/>
<path d="M39.2953 9.00784C39.9503 9.00784 40.4861 9.25462 40.9029 9.6865L43.1653 7.34203C42.1532 6.35488 40.7838 5.73792 39.2953 5.73792C36.1993 5.73792 33.6987 8.32917 33.6987 11.5374C33.6987 14.7456 36.1993 17.3369 39.2953 17.3369C40.7838 17.3369 42.0936 16.7199 43.1058 15.7945L40.8433 13.45C40.4266 13.8202 39.8907 14.0053 39.2953 14.0053C37.9855 14.0053 36.9138 12.8947 36.9138 11.5374C36.8543 10.1184 37.9259 9.00784 39.2953 9.00784Z" fill="black"/>
<path d="M46.5588 12.3394C45.2489 12.3394 44.1772 13.4499 44.1772 14.8072C44.1772 16.1645 45.2489 17.2751 46.5588 17.2751C47.8686 17.2751 48.9403 16.1645 48.9403 14.8072C48.9998 13.4499 47.9282 12.3394 46.5588 12.3394Z" fill="black"/>
<path d="M32.746 5.86121H28.9951V17.2134H32.746V5.86121Z" fill="black"/>
<path d="M45.0704 23.0746C45.7253 23.0746 46.2612 22.7045 46.2612 22.0258C46.2612 21.4088 45.7253 21.2237 45.249 21.0387C44.8918 20.9153 44.5346 20.7919 44.5346 20.5451C44.5346 20.36 44.7132 20.2366 45.0109 20.2366C45.3086 20.2366 45.6063 20.36 45.904 20.5451L46.2016 19.9898C45.8444 19.743 45.4276 19.6196 45.0109 19.6196C44.356 19.6196 43.8797 19.9898 43.8797 20.6685C43.8797 21.2854 44.4155 21.5322 44.8918 21.6556C45.249 21.779 45.6063 21.8407 45.6063 22.1492C45.6063 22.396 45.4277 22.5194 45.13 22.5194C44.7727 22.5194 44.4155 22.396 44.0583 22.0875L43.701 22.5811C44.1178 22.8896 44.5941 23.0746 45.0704 23.0746ZM40.8432 21.1003C40.9027 20.6068 41.2004 20.2366 41.6767 20.2366C42.153 20.2366 42.4507 20.6068 42.5103 21.1003H40.8432ZM41.7363 23.0746C42.3317 23.0746 42.7484 22.8279 43.0461 22.4577L42.6293 22.0875C42.3912 22.3343 42.0935 22.4577 41.7363 22.4577C41.26 22.4577 40.9027 22.1492 40.7837 21.5939H43.1652C43.1652 21.5322 43.1652 21.4705 43.1652 21.4088C43.1652 20.4217 42.6294 19.6196 41.6172 19.6196C40.7241 19.6196 40.0692 20.4217 40.0692 21.3471C40.1287 22.396 40.8432 23.0746 41.7363 23.0746ZM37.8663 22.396C37.39 22.396 36.9137 21.9641 36.9137 21.3471C36.9137 20.7302 37.3304 20.2983 37.8663 20.2983C38.3426 20.2983 38.7594 20.7302 38.7594 21.3471C38.7594 22.0258 38.3426 22.396 37.8663 22.396ZM36.1992 24.0001H36.9137V22.4577C37.1518 22.7662 37.4495 23.0746 37.9854 23.0746C38.7594 23.0746 39.4738 22.4577 39.4738 21.3471C39.4738 20.2366 38.7594 19.6196 37.9854 19.6196C37.4495 19.6196 37.1518 19.9281 36.9137 20.2366V19.6813H36.1992V24.0001ZM33.8772 22.5194C33.52 22.5194 33.2223 22.3343 33.2223 22.0258C33.2223 21.6556 33.52 21.4705 33.9963 21.4705C34.294 21.4705 34.5321 21.5322 34.7108 21.5939V21.8407C34.7108 22.2109 34.3535 22.5194 33.8772 22.5194ZM33.6391 23.0746C34.1154 23.0746 34.4726 22.8896 34.7108 22.5811V23.0129H35.4252V21.0387C35.4252 20.6068 35.3061 20.2366 35.068 19.9898C34.8298 19.743 34.4726 19.6196 33.9963 19.6196C33.4605 19.6196 33.1628 19.743 32.8055 19.8664L32.9842 20.4834C33.2818 20.36 33.52 20.2983 33.8772 20.2983C34.4131 20.2983 34.6512 20.5451 34.6512 21.0387V21.1003C34.4131 21.0387 34.1154 20.977 33.7581 20.977C32.9842 20.977 32.4483 21.3471 32.4483 22.0258C32.5078 22.7045 33.0437 23.0746 33.6391 23.0746ZM30.2454 23.0129H30.9598L32.2697 19.6196H31.4957L30.6026 22.0875L29.7095 19.6196H28.9355L30.2454 23.0129Z" fill="black"/>
</svg>
